{"title":"New.York.I.Love.You.2009.SWESUB.DVDRip.XviD.-Zen_Bud","uid":5647902,"size":738842166,"categoryP":"video","categoryS":"movies","magnet":"?xt=urn:btih:d4a9acdbb99115a13f8b61d3e0f7815a87caf838&amp;dn=New.York.I.Love.You.2009.SWESUB.DVDRip.XviD.-Zen_Bud&amp;tr=udp%3A%2F%2Ftracker.openbittorrent.com%3A80&amp;tr=udp%3A%2F%2Fopen.demonii.com%3A1337&amp;tr=udp%3A%2F%2Ftracker.coppersurfer.tk%3A6969&amp;tr=udp%3A%2F%2Fexodus.desync.com%3A6969","seeders":1,"leechers":0,"uploader":"Zen_Bud","files":-1,"time":1277466606,"description":"General\nComplete name                    : New York I Love You .avi\nFormat                           : AVI\nFile size                        : 705 MiB\nDuration                         : 1h 38mn\nOverall bit rate                 : 997 Kbps\n\nVideo\n\nFormat                           : MPEG-4 Visual\nCodec ID/Hint                    : XviD\nDuration                         : 1h 38mn\nBit rate                         : 856 Kbps\nWidth                            : 716 pixels\nHeight                           : 554 pixels\nDisplay aspect ratio             : 16:9\nStream size                      : 605 MiB (86%)\nWriting library                  : XviD 1.1.2 (UTC 2006-11-01)\n\nAudio\n\nFormat                           : MPEG Audio\nCodec ID/Hint                    : MP3\nDuration                         : 1h 38mn\nBit rate                         : 128 Kbps\nChannel(s)                       : 2 channels\nSampling rate                    : 48.0 KHz\nStream size                      : 90.5 MiB (13%)\n\n\n","torrent":{"xt":"urn:btih:d4a9acdbb99115a13f8b61d3e0f7815a87caf838","amp;dn":"New.York.I.Love.You.2009.SWESUB.DVDRip.XviD.-Zen_Bud","amp;tr":["udp%3A%2F%2Ftracker.openbittorrent.com%3A80","udp%3A%2F%2Fopen.demonii.com%3A1337","udp%3A%2F%2Ftracker.coppersurfer.tk%3A6969","udp%3A%2F%2Fexodus.desync.com%3A6969"],"infoHash":"d4a9acdbb99115a13f8b61d3e0f7815a87caf838","infoHashBuffer":{"type":"Buffer","data":[212,169,172,219,185,145,21,161,63,139,97,211,224,247,129,90,135,202,248,56]},"announce":[],"urlList":[]}}